<svg xmlns="http://www.w3.org/2000/svg" width="25.959" height="24" viewBox="0 0 25.959 24">
  <path id="Path_3293" data-name="Path 3293" d="M102.753,32.632H86.844l-1.569-2.718a1.984,1.984,0,0,0-2.844-.642l-3.513,2.419a.618.618,0,0,0-.244.34,10.9,10.9,0,0,0,.283,5.707,27.417,27.417,0,0,0,2.737,6.394c2.121,3.673,5.606,7.906,9.029,8.769a.619.619,0,0,0,.417-.041l3.851-1.833a1.984,1.984,0,0,0,.866-2.784l-.554-.959h7.45a1.619,1.619,0,0,0,1.617-1.617V34.249a1.618,1.618,0,0,0-1.617-1.617ZM87.429,33.868h14.328l-7.79,5.34-6.561-4.5a2,2,0,0,0,.024-.842Zm7.424,15.589a.7.7,0,0,1-.393.454l-3.643,1.734c-2.481-.753-5.615-3.909-8.052-8.13s-3.559-8.383-2.956-10.935l3.323-2.288a.748.748,0,0,1,1.072.242l1.926,3.336a.753.753,0,0,1-.259,1.013l-2.134,1.3a.618.618,0,0,0-.284.653,21.48,21.48,0,0,0,5.5,9.525.618.618,0,0,0,.707.081l2.192-1.2a.753.753,0,0,1,1.007.282l1.926,3.336a.7.7,0,0,1,.067.6Zm7.9-3.41H94.589l-.659-1.141a2,2,0,0,0-2.671-.749l-1.8.983A21.129,21.129,0,0,1,84.763,37l1.751-1.066a1.934,1.934,0,0,0,.242-.174l6.862,4.7a.618.618,0,0,0,.7,0l8.817-6.044V45.666a.385.385,0,0,1-.38.381Z" transform="translate(-78.411 -28.919)" fill="#fff"/>
</svg>
