<svg xmlns="http://www.w3.org/2000/svg" width="111.345" height="94.133" viewBox="0 0 111.345 94.133">
  <g id="Group_2777" data-name="Group 2777" transform="translate(-763 -596.739)">
    <g id="Group_2757" data-name="Group 2757" transform="translate(730.977 187.246)">
      <g id="Group_1" data-name="Group 1" transform="translate(132.386 409.493)">
        <path id="Path_1" data-name="Path 1" d="M236.048,419.678A6.683,6.683,0,0,1,233.3,423.5l-.056-.061c1.576-1.743.465-4.158-1.016-5.252-1.206-.891-2.443-1.741-3.645-2.636a13.489,13.489,0,0,1-2.7-2.647,4.056,4.056,0,0,1-.453-.729,1.418,1.418,0,0,1,.61-2,5.1,5.1,0,0,1,1.531-.571,10.12,10.12,0,0,1,2.319-.072,6.891,6.891,0,0,1,2.269.707,1.291,1.291,0,0,1,.562.371c-.2.059-.331-.058-.474-.108a2.923,2.923,0,0,0-1.873-.184.888.888,0,0,0-.6,1.345,3.32,3.32,0,0,0,.543.811,30.58,30.58,0,0,0,4.023,3.538c.021.017.068,0,.167,0-.317-.444-.618-.843-.894-1.26a3.91,3.91,0,0,1-.741-1.789,1.109,1.109,0,0,1,.534-1.129,1.457,1.457,0,0,1,1.718,1.123c-.036-.018-.072-.034-.105-.054a.758.758,0,0,0-.944-.037.768.768,0,0,0-.14.969,5.828,5.828,0,0,0,.733,1.245,6.488,6.488,0,0,1,1.528,2.6A6.919,6.919,0,0,1,236.048,419.678Z" transform="translate(-225.239 -409.493)" fill="#21b2d4"/>
      </g>
      <g id="Group_2" data-name="Group 2" transform="translate(128.023 413.677)">
        <path id="Path_2" data-name="Path 2" d="M128.127,505.227c.1-.394.183-.773.307-1.153a6.5,6.5,0,0,1,.567-1.363.89.89,0,0,1,.094.5,4.765,4.765,0,0,0,1.829,3.084,20.917,20.917,0,0,0,2.407,1.808,5.509,5.509,0,0,1,1.812,1.966,3.429,3.429,0,0,1,.216.5,1.374,1.374,0,0,1-1.158,2.013,4.895,4.895,0,0,1-4.818-2.084,9.849,9.849,0,0,1-1.223-2.993A5.517,5.517,0,0,1,128.127,505.227Z" transform="translate(-128.023 -502.712)" fill="#21b2d4"/>
      </g>
      <g id="Group_3" data-name="Group 3" transform="translate(140.396 423.439)">
        <path id="Path_3" data-name="Path 3" d="M403.677,720.2l.056.061" transform="translate(-403.677 -720.2)" fill="#21b2d4"/>
      </g>
    </g>
    <g id="Group_2762" data-name="Group 2762" transform="translate(730.977 207.246)">
      <g id="Group_1-2" data-name="Group 1" transform="translate(132.386 409.493)">
        <path id="Path_1-2" data-name="Path 1" d="M236.048,419.678A6.683,6.683,0,0,1,233.3,423.5l-.056-.061c1.576-1.743.465-4.158-1.016-5.252-1.206-.891-2.443-1.741-3.645-2.636a13.489,13.489,0,0,1-2.7-2.647,4.056,4.056,0,0,1-.453-.729,1.418,1.418,0,0,1,.61-2,5.1,5.1,0,0,1,1.531-.571,10.12,10.12,0,0,1,2.319-.072,6.891,6.891,0,0,1,2.269.707,1.291,1.291,0,0,1,.562.371c-.2.059-.331-.058-.474-.108a2.923,2.923,0,0,0-1.873-.184.888.888,0,0,0-.6,1.345,3.32,3.32,0,0,0,.543.811,30.58,30.58,0,0,0,4.023,3.538c.021.017.068,0,.167,0-.317-.444-.618-.843-.894-1.26a3.91,3.91,0,0,1-.741-1.789,1.109,1.109,0,0,1,.534-1.129,1.457,1.457,0,0,1,1.718,1.123c-.036-.018-.072-.034-.105-.054a.758.758,0,0,0-.944-.037.768.768,0,0,0-.14.969,5.828,5.828,0,0,0,.733,1.245,6.488,6.488,0,0,1,1.528,2.6A6.919,6.919,0,0,1,236.048,419.678Z" transform="translate(-225.239 -409.493)" fill="#21b2d4"/>
      </g>
      <g id="Group_2-2" data-name="Group 2" transform="translate(128.023 413.677)">
        <path id="Path_2-2" data-name="Path 2" d="M128.127,505.227c.1-.394.183-.773.307-1.153a6.5,6.5,0,0,1,.567-1.363.89.89,0,0,1,.094.5,4.765,4.765,0,0,0,1.829,3.084,20.917,20.917,0,0,0,2.407,1.808,5.509,5.509,0,0,1,1.812,1.966,3.429,3.429,0,0,1,.216.5,1.374,1.374,0,0,1-1.158,2.013,4.895,4.895,0,0,1-4.818-2.084,9.849,9.849,0,0,1-1.223-2.993A5.517,5.517,0,0,1,128.127,505.227Z" transform="translate(-128.023 -502.712)" fill="#21b2d4"/>
      </g>
      <g id="Group_3-2" data-name="Group 3" transform="translate(140.396 423.439)">
        <path id="Path_3-2" data-name="Path 3" d="M403.677,720.2l.056.061" transform="translate(-403.677 -720.2)" fill="#21b2d4"/>
      </g>
    </g>
    <g id="Group_2767" data-name="Group 2767" transform="translate(730.977 227.246)">
      <g id="Group_1-3" data-name="Group 1" transform="translate(132.386 409.493)">
        <path id="Path_1-3" data-name="Path 1" d="M236.048,419.678A6.683,6.683,0,0,1,233.3,423.5l-.056-.061c1.576-1.743.465-4.158-1.016-5.252-1.206-.891-2.443-1.741-3.645-2.636a13.489,13.489,0,0,1-2.7-2.647,4.056,4.056,0,0,1-.453-.729,1.418,1.418,0,0,1,.61-2,5.1,5.1,0,0,1,1.531-.571,10.12,10.12,0,0,1,2.319-.072,6.891,6.891,0,0,1,2.269.707,1.291,1.291,0,0,1,.562.371c-.2.059-.331-.058-.474-.108a2.923,2.923,0,0,0-1.873-.184.888.888,0,0,0-.6,1.345,3.32,3.32,0,0,0,.543.811,30.58,30.58,0,0,0,4.023,3.538c.021.017.068,0,.167,0-.317-.444-.618-.843-.894-1.26a3.91,3.91,0,0,1-.741-1.789,1.109,1.109,0,0,1,.534-1.129,1.457,1.457,0,0,1,1.718,1.123c-.036-.018-.072-.034-.105-.054a.758.758,0,0,0-.944-.037.768.768,0,0,0-.14.969,5.828,5.828,0,0,0,.733,1.245,6.488,6.488,0,0,1,1.528,2.6A6.919,6.919,0,0,1,236.048,419.678Z" transform="translate(-225.239 -409.493)" fill="#21b2d4"/>
      </g>
      <g id="Group_2-3" data-name="Group 2" transform="translate(128.023 413.677)">
        <path id="Path_2-3" data-name="Path 2" d="M128.127,505.227c.1-.394.183-.773.307-1.153a6.5,6.5,0,0,1,.567-1.363.89.89,0,0,1,.094.5,4.765,4.765,0,0,0,1.829,3.084,20.917,20.917,0,0,0,2.407,1.808,5.509,5.509,0,0,1,1.812,1.966,3.429,3.429,0,0,1,.216.5,1.374,1.374,0,0,1-1.158,2.013,4.895,4.895,0,0,1-4.818-2.084,9.849,9.849,0,0,1-1.223-2.993A5.517,5.517,0,0,1,128.127,505.227Z" transform="translate(-128.023 -502.712)" fill="#21b2d4"/>
      </g>
      <g id="Group_3-3" data-name="Group 3" transform="translate(140.396 423.439)">
        <path id="Path_3-3" data-name="Path 3" d="M403.677,720.2l.056.061" transform="translate(-403.677 -720.2)" fill="#21b2d4"/>
      </g>
    </g>
    <g id="Group_2772" data-name="Group 2772" transform="translate(730.977 247.246)">
      <g id="Group_1-4" data-name="Group 1" transform="translate(132.386 409.493)">
        <path id="Path_1-4" data-name="Path 1" d="M236.048,419.678A6.683,6.683,0,0,1,233.3,423.5l-.056-.061c1.576-1.743.465-4.158-1.016-5.252-1.206-.891-2.443-1.741-3.645-2.636a13.489,13.489,0,0,1-2.7-2.647,4.056,4.056,0,0,1-.453-.729,1.418,1.418,0,0,1,.61-2,5.1,5.1,0,0,1,1.531-.571,10.12,10.12,0,0,1,2.319-.072,6.891,6.891,0,0,1,2.269.707,1.291,1.291,0,0,1,.562.371c-.2.059-.331-.058-.474-.108a2.923,2.923,0,0,0-1.873-.184.888.888,0,0,0-.6,1.345,3.32,3.32,0,0,0,.543.811,30.58,30.58,0,0,0,4.023,3.538c.021.017.068,0,.167,0-.317-.444-.618-.843-.894-1.26a3.91,3.91,0,0,1-.741-1.789,1.109,1.109,0,0,1,.534-1.129,1.457,1.457,0,0,1,1.718,1.123c-.036-.018-.072-.034-.105-.054a.758.758,0,0,0-.944-.037.768.768,0,0,0-.14.969,5.828,5.828,0,0,0,.733,1.245,6.488,6.488,0,0,1,1.528,2.6A6.919,6.919,0,0,1,236.048,419.678Z" transform="translate(-225.239 -409.493)" fill="#21b2d4"/>
      </g>
      <g id="Group_2-4" data-name="Group 2" transform="translate(128.023 413.677)">
        <path id="Path_2-4" data-name="Path 2" d="M128.127,505.227c.1-.394.183-.773.307-1.153a6.5,6.5,0,0,1,.567-1.363.89.89,0,0,1,.094.5,4.765,4.765,0,0,0,1.829,3.084,20.917,20.917,0,0,0,2.407,1.808,5.509,5.509,0,0,1,1.812,1.966,3.429,3.429,0,0,1,.216.5,1.374,1.374,0,0,1-1.158,2.013,4.895,4.895,0,0,1-4.818-2.084,9.849,9.849,0,0,1-1.223-2.993A5.517,5.517,0,0,1,128.127,505.227Z" transform="translate(-128.023 -502.712)" fill="#21b2d4"/>
      </g>
      <g id="Group_3-4" data-name="Group 3" transform="translate(140.396 423.439)">
        <path id="Path_3-4" data-name="Path 3" d="M403.677,720.2l.056.061" transform="translate(-403.677 -720.2)" fill="#21b2d4"/>
      </g>
    </g>
    <g id="Group_2758" data-name="Group 2758" transform="translate(706.977 187.246)">
      <g id="Group_1-5" data-name="Group 1" transform="translate(132.386 409.493)">
        <path id="Path_1-5" data-name="Path 1" d="M236.048,419.678A6.683,6.683,0,0,1,233.3,423.5l-.056-.061c1.576-1.743.465-4.158-1.016-5.252-1.206-.891-2.443-1.741-3.645-2.636a13.489,13.489,0,0,1-2.7-2.647,4.056,4.056,0,0,1-.453-.729,1.418,1.418,0,0,1,.61-2,5.1,5.1,0,0,1,1.531-.571,10.12,10.12,0,0,1,2.319-.072,6.891,6.891,0,0,1,2.269.707,1.291,1.291,0,0,1,.562.371c-.2.059-.331-.058-.474-.108a2.923,2.923,0,0,0-1.873-.184.888.888,0,0,0-.6,1.345,3.32,3.32,0,0,0,.543.811,30.58,30.58,0,0,0,4.023,3.538c.021.017.068,0,.167,0-.317-.444-.618-.843-.894-1.26a3.91,3.91,0,0,1-.741-1.789,1.109,1.109,0,0,1,.534-1.129,1.457,1.457,0,0,1,1.718,1.123c-.036-.018-.072-.034-.105-.054a.758.758,0,0,0-.944-.037.768.768,0,0,0-.14.969,5.828,5.828,0,0,0,.733,1.245,6.488,6.488,0,0,1,1.528,2.6A6.919,6.919,0,0,1,236.048,419.678Z" transform="translate(-225.239 -409.493)" fill="#21b2d4"/>
      </g>
      <g id="Group_2-5" data-name="Group 2" transform="translate(128.023 413.677)">
        <path id="Path_2-5" data-name="Path 2" d="M128.127,505.227c.1-.394.183-.773.307-1.153a6.5,6.5,0,0,1,.567-1.363.89.89,0,0,1,.094.5,4.765,4.765,0,0,0,1.829,3.084,20.917,20.917,0,0,0,2.407,1.808,5.509,5.509,0,0,1,1.812,1.966,3.429,3.429,0,0,1,.216.5,1.374,1.374,0,0,1-1.158,2.013,4.895,4.895,0,0,1-4.818-2.084,9.849,9.849,0,0,1-1.223-2.993A5.517,5.517,0,0,1,128.127,505.227Z" transform="translate(-128.023 -502.712)" fill="#21b2d4"/>
      </g>
      <g id="Group_3-5" data-name="Group 3" transform="translate(140.396 423.439)">
        <path id="Path_3-5" data-name="Path 3" d="M403.677,720.2l.056.061" transform="translate(-403.677 -720.2)" fill="#21b2d4"/>
      </g>
    </g>
    <g id="Group_2763" data-name="Group 2763" transform="translate(706.977 207.246)">
      <g id="Group_1-6" data-name="Group 1" transform="translate(132.386 409.493)">
        <path id="Path_1-6" data-name="Path 1" d="M236.048,419.678A6.683,6.683,0,0,1,233.3,423.5l-.056-.061c1.576-1.743.465-4.158-1.016-5.252-1.206-.891-2.443-1.741-3.645-2.636a13.489,13.489,0,0,1-2.7-2.647,4.056,4.056,0,0,1-.453-.729,1.418,1.418,0,0,1,.61-2,5.1,5.1,0,0,1,1.531-.571,10.12,10.12,0,0,1,2.319-.072,6.891,6.891,0,0,1,2.269.707,1.291,1.291,0,0,1,.562.371c-.2.059-.331-.058-.474-.108a2.923,2.923,0,0,0-1.873-.184.888.888,0,0,0-.6,1.345,3.32,3.32,0,0,0,.543.811,30.58,30.58,0,0,0,4.023,3.538c.021.017.068,0,.167,0-.317-.444-.618-.843-.894-1.26a3.91,3.91,0,0,1-.741-1.789,1.109,1.109,0,0,1,.534-1.129,1.457,1.457,0,0,1,1.718,1.123c-.036-.018-.072-.034-.105-.054a.758.758,0,0,0-.944-.037.768.768,0,0,0-.14.969,5.828,5.828,0,0,0,.733,1.245,6.488,6.488,0,0,1,1.528,2.6A6.919,6.919,0,0,1,236.048,419.678Z" transform="translate(-225.239 -409.493)" fill="#21b2d4"/>
      </g>
      <g id="Group_2-6" data-name="Group 2" transform="translate(128.023 413.677)">
        <path id="Path_2-6" data-name="Path 2" d="M128.127,505.227c.1-.394.183-.773.307-1.153a6.5,6.5,0,0,1,.567-1.363.89.89,0,0,1,.094.5,4.765,4.765,0,0,0,1.829,3.084,20.917,20.917,0,0,0,2.407,1.808,5.509,5.509,0,0,1,1.812,1.966,3.429,3.429,0,0,1,.216.5,1.374,1.374,0,0,1-1.158,2.013,4.895,4.895,0,0,1-4.818-2.084,9.849,9.849,0,0,1-1.223-2.993A5.517,5.517,0,0,1,128.127,505.227Z" transform="translate(-128.023 -502.712)" fill="#21b2d4"/>
      </g>
      <g id="Group_3-6" data-name="Group 3" transform="translate(140.396 423.439)">
        <path id="Path_3-6" data-name="Path 3" d="M403.677,720.2l.056.061" transform="translate(-403.677 -720.2)" fill="#21b2d4"/>
      </g>
    </g>
    <g id="Group_2768" data-name="Group 2768" transform="translate(706.977 227.246)">
      <g id="Group_1-7" data-name="Group 1" transform="translate(132.386 409.493)">
        <path id="Path_1-7" data-name="Path 1" d="M236.048,419.678A6.683,6.683,0,0,1,233.3,423.5l-.056-.061c1.576-1.743.465-4.158-1.016-5.252-1.206-.891-2.443-1.741-3.645-2.636a13.489,13.489,0,0,1-2.7-2.647,4.056,4.056,0,0,1-.453-.729,1.418,1.418,0,0,1,.61-2,5.1,5.1,0,0,1,1.531-.571,10.12,10.12,0,0,1,2.319-.072,6.891,6.891,0,0,1,2.269.707,1.291,1.291,0,0,1,.562.371c-.2.059-.331-.058-.474-.108a2.923,2.923,0,0,0-1.873-.184.888.888,0,0,0-.6,1.345,3.32,3.32,0,0,0,.543.811,30.58,30.58,0,0,0,4.023,3.538c.021.017.068,0,.167,0-.317-.444-.618-.843-.894-1.26a3.91,3.91,0,0,1-.741-1.789,1.109,1.109,0,0,1,.534-1.129,1.457,1.457,0,0,1,1.718,1.123c-.036-.018-.072-.034-.105-.054a.758.758,0,0,0-.944-.037.768.768,0,0,0-.14.969,5.828,5.828,0,0,0,.733,1.245,6.488,6.488,0,0,1,1.528,2.6A6.919,6.919,0,0,1,236.048,419.678Z" transform="translate(-225.239 -409.493)" fill="#21b2d4"/>
      </g>
      <g id="Group_2-7" data-name="Group 2" transform="translate(128.023 413.677)">
        <path id="Path_2-7" data-name="Path 2" d="M128.127,505.227c.1-.394.183-.773.307-1.153a6.5,6.5,0,0,1,.567-1.363.89.89,0,0,1,.094.5,4.765,4.765,0,0,0,1.829,3.084,20.917,20.917,0,0,0,2.407,1.808,5.509,5.509,0,0,1,1.812,1.966,3.429,3.429,0,0,1,.216.5,1.374,1.374,0,0,1-1.158,2.013,4.895,4.895,0,0,1-4.818-2.084,9.849,9.849,0,0,1-1.223-2.993A5.517,5.517,0,0,1,128.127,505.227Z" transform="translate(-128.023 -502.712)" fill="#21b2d4"/>
      </g>
      <g id="Group_3-7" data-name="Group 3" transform="translate(140.396 423.439)">
        <path id="Path_3-7" data-name="Path 3" d="M403.677,720.2l.056.061" transform="translate(-403.677 -720.2)" fill="#21b2d4"/>
      </g>
    </g>
    <g id="Group_2773" data-name="Group 2773" transform="translate(706.977 247.246)">
      <g id="Group_1-8" data-name="Group 1" transform="translate(132.386 409.493)">
        <path id="Path_1-8" data-name="Path 1" d="M236.048,419.678A6.683,6.683,0,0,1,233.3,423.5l-.056-.061c1.576-1.743.465-4.158-1.016-5.252-1.206-.891-2.443-1.741-3.645-2.636a13.489,13.489,0,0,1-2.7-2.647,4.056,4.056,0,0,1-.453-.729,1.418,1.418,0,0,1,.61-2,5.1,5.1,0,0,1,1.531-.571,10.12,10.12,0,0,1,2.319-.072,6.891,6.891,0,0,1,2.269.707,1.291,1.291,0,0,1,.562.371c-.2.059-.331-.058-.474-.108a2.923,2.923,0,0,0-1.873-.184.888.888,0,0,0-.6,1.345,3.32,3.32,0,0,0,.543.811,30.58,30.58,0,0,0,4.023,3.538c.021.017.068,0,.167,0-.317-.444-.618-.843-.894-1.26a3.91,3.91,0,0,1-.741-1.789,1.109,1.109,0,0,1,.534-1.129,1.457,1.457,0,0,1,1.718,1.123c-.036-.018-.072-.034-.105-.054a.758.758,0,0,0-.944-.037.768.768,0,0,0-.14.969,5.828,5.828,0,0,0,.733,1.245,6.488,6.488,0,0,1,1.528,2.6A6.919,6.919,0,0,1,236.048,419.678Z" transform="translate(-225.239 -409.493)" fill="#21b2d4"/>
      </g>
      <g id="Group_2-8" data-name="Group 2" transform="translate(128.023 413.677)">
        <path id="Path_2-8" data-name="Path 2" d="M128.127,505.227c.1-.394.183-.773.307-1.153a6.5,6.5,0,0,1,.567-1.363.89.89,0,0,1,.094.5,4.765,4.765,0,0,0,1.829,3.084,20.917,20.917,0,0,0,2.407,1.808,5.509,5.509,0,0,1,1.812,1.966,3.429,3.429,0,0,1,.216.5,1.374,1.374,0,0,1-1.158,2.013,4.895,4.895,0,0,1-4.818-2.084,9.849,9.849,0,0,1-1.223-2.993A5.517,5.517,0,0,1,128.127,505.227Z" transform="translate(-128.023 -502.712)" fill="#21b2d4"/>
      </g>
      <g id="Group_3-8" data-name="Group 3" transform="translate(140.396 423.439)">
        <path id="Path_3-8" data-name="Path 3" d="M403.677,720.2l.056.061" transform="translate(-403.677 -720.2)" fill="#21b2d4"/>
      </g>
    </g>
    <g id="Group_2759" data-name="Group 2759" transform="translate(682.977 187.246)">
      <g id="Group_1-9" data-name="Group 1" transform="translate(132.386 409.493)">
        <path id="Path_1-9" data-name="Path 1" d="M236.048,419.678A6.683,6.683,0,0,1,233.3,423.5l-.056-.061c1.576-1.743.465-4.158-1.016-5.252-1.206-.891-2.443-1.741-3.645-2.636a13.489,13.489,0,0,1-2.7-2.647,4.056,4.056,0,0,1-.453-.729,1.418,1.418,0,0,1,.61-2,5.1,5.1,0,0,1,1.531-.571,10.12,10.12,0,0,1,2.319-.072,6.891,6.891,0,0,1,2.269.707,1.291,1.291,0,0,1,.562.371c-.2.059-.331-.058-.474-.108a2.923,2.923,0,0,0-1.873-.184.888.888,0,0,0-.6,1.345,3.32,3.32,0,0,0,.543.811,30.58,30.58,0,0,0,4.023,3.538c.021.017.068,0,.167,0-.317-.444-.618-.843-.894-1.26a3.91,3.91,0,0,1-.741-1.789,1.109,1.109,0,0,1,.534-1.129,1.457,1.457,0,0,1,1.718,1.123c-.036-.018-.072-.034-.105-.054a.758.758,0,0,0-.944-.037.768.768,0,0,0-.14.969,5.828,5.828,0,0,0,.733,1.245,6.488,6.488,0,0,1,1.528,2.6A6.919,6.919,0,0,1,236.048,419.678Z" transform="translate(-225.239 -409.493)" fill="#21b2d4"/>
      </g>
      <g id="Group_2-9" data-name="Group 2" transform="translate(128.023 413.677)">
        <path id="Path_2-9" data-name="Path 2" d="M128.127,505.227c.1-.394.183-.773.307-1.153a6.5,6.5,0,0,1,.567-1.363.89.89,0,0,1,.094.5,4.765,4.765,0,0,0,1.829,3.084,20.917,20.917,0,0,0,2.407,1.808,5.509,5.509,0,0,1,1.812,1.966,3.429,3.429,0,0,1,.216.5,1.374,1.374,0,0,1-1.158,2.013,4.895,4.895,0,0,1-4.818-2.084,9.849,9.849,0,0,1-1.223-2.993A5.517,5.517,0,0,1,128.127,505.227Z" transform="translate(-128.023 -502.712)" fill="#21b2d4"/>
      </g>
      <g id="Group_3-9" data-name="Group 3" transform="translate(140.396 423.439)">
        <path id="Path_3-9" data-name="Path 3" d="M403.677,720.2l.056.061" transform="translate(-403.677 -720.2)" fill="#21b2d4"/>
      </g>
    </g>
    <g id="Group_2764" data-name="Group 2764" transform="translate(682.977 207.246)">
      <g id="Group_1-10" data-name="Group 1" transform="translate(132.386 409.493)">
        <path id="Path_1-10" data-name="Path 1" d="M236.048,419.678A6.683,6.683,0,0,1,233.3,423.5l-.056-.061c1.576-1.743.465-4.158-1.016-5.252-1.206-.891-2.443-1.741-3.645-2.636a13.489,13.489,0,0,1-2.7-2.647,4.056,4.056,0,0,1-.453-.729,1.418,1.418,0,0,1,.61-2,5.1,5.1,0,0,1,1.531-.571,10.12,10.12,0,0,1,2.319-.072,6.891,6.891,0,0,1,2.269.707,1.291,1.291,0,0,1,.562.371c-.2.059-.331-.058-.474-.108a2.923,2.923,0,0,0-1.873-.184.888.888,0,0,0-.6,1.345,3.32,3.32,0,0,0,.543.811,30.58,30.58,0,0,0,4.023,3.538c.021.017.068,0,.167,0-.317-.444-.618-.843-.894-1.26a3.91,3.91,0,0,1-.741-1.789,1.109,1.109,0,0,1,.534-1.129,1.457,1.457,0,0,1,1.718,1.123c-.036-.018-.072-.034-.105-.054a.758.758,0,0,0-.944-.037.768.768,0,0,0-.14.969,5.828,5.828,0,0,0,.733,1.245,6.488,6.488,0,0,1,1.528,2.6A6.919,6.919,0,0,1,236.048,419.678Z" transform="translate(-225.239 -409.493)" fill="#21b2d4"/>
      </g>
      <g id="Group_2-10" data-name="Group 2" transform="translate(128.023 413.677)">
        <path id="Path_2-10" data-name="Path 2" d="M128.127,505.227c.1-.394.183-.773.307-1.153a6.5,6.5,0,0,1,.567-1.363.89.89,0,0,1,.094.5,4.765,4.765,0,0,0,1.829,3.084,20.917,20.917,0,0,0,2.407,1.808,5.509,5.509,0,0,1,1.812,1.966,3.429,3.429,0,0,1,.216.5,1.374,1.374,0,0,1-1.158,2.013,4.895,4.895,0,0,1-4.818-2.084,9.849,9.849,0,0,1-1.223-2.993A5.517,5.517,0,0,1,128.127,505.227Z" transform="translate(-128.023 -502.712)" fill="#21b2d4"/>
      </g>
      <g id="Group_3-10" data-name="Group 3" transform="translate(140.396 423.439)">
        <path id="Path_3-10" data-name="Path 3" d="M403.677,720.2l.056.061" transform="translate(-403.677 -720.2)" fill="#21b2d4"/>
      </g>
    </g>
    <g id="Group_2769" data-name="Group 2769" transform="translate(682.977 227.246)">
      <g id="Group_1-11" data-name="Group 1" transform="translate(132.386 409.493)">
        <path id="Path_1-11" data-name="Path 1" d="M236.048,419.678A6.683,6.683,0,0,1,233.3,423.5l-.056-.061c1.576-1.743.465-4.158-1.016-5.252-1.206-.891-2.443-1.741-3.645-2.636a13.489,13.489,0,0,1-2.7-2.647,4.056,4.056,0,0,1-.453-.729,1.418,1.418,0,0,1,.61-2,5.1,5.1,0,0,1,1.531-.571,10.12,10.12,0,0,1,2.319-.072,6.891,6.891,0,0,1,2.269.707,1.291,1.291,0,0,1,.562.371c-.2.059-.331-.058-.474-.108a2.923,2.923,0,0,0-1.873-.184.888.888,0,0,0-.6,1.345,3.32,3.32,0,0,0,.543.811,30.58,30.58,0,0,0,4.023,3.538c.021.017.068,0,.167,0-.317-.444-.618-.843-.894-1.26a3.91,3.91,0,0,1-.741-1.789,1.109,1.109,0,0,1,.534-1.129,1.457,1.457,0,0,1,1.718,1.123c-.036-.018-.072-.034-.105-.054a.758.758,0,0,0-.944-.037.768.768,0,0,0-.14.969,5.828,5.828,0,0,0,.733,1.245,6.488,6.488,0,0,1,1.528,2.6A6.919,6.919,0,0,1,236.048,419.678Z" transform="translate(-225.239 -409.493)" fill="#21b2d4"/>
      </g>
      <g id="Group_2-11" data-name="Group 2" transform="translate(128.023 413.677)">
        <path id="Path_2-11" data-name="Path 2" d="M128.127,505.227c.1-.394.183-.773.307-1.153a6.5,6.5,0,0,1,.567-1.363.89.89,0,0,1,.094.5,4.765,4.765,0,0,0,1.829,3.084,20.917,20.917,0,0,0,2.407,1.808,5.509,5.509,0,0,1,1.812,1.966,3.429,3.429,0,0,1,.216.5,1.374,1.374,0,0,1-1.158,2.013,4.895,4.895,0,0,1-4.818-2.084,9.849,9.849,0,0,1-1.223-2.993A5.517,5.517,0,0,1,128.127,505.227Z" transform="translate(-128.023 -502.712)" fill="#21b2d4"/>
      </g>
      <g id="Group_3-11" data-name="Group 3" transform="translate(140.396 423.439)">
        <path id="Path_3-11" data-name="Path 3" d="M403.677,720.2l.056.061" transform="translate(-403.677 -720.2)" fill="#21b2d4"/>
      </g>
    </g>
    <g id="Group_2774" data-name="Group 2774" transform="translate(682.977 247.246)">
      <g id="Group_1-12" data-name="Group 1" transform="translate(132.386 409.493)">
        <path id="Path_1-12" data-name="Path 1" d="M236.048,419.678A6.683,6.683,0,0,1,233.3,423.5l-.056-.061c1.576-1.743.465-4.158-1.016-5.252-1.206-.891-2.443-1.741-3.645-2.636a13.489,13.489,0,0,1-2.7-2.647,4.056,4.056,0,0,1-.453-.729,1.418,1.418,0,0,1,.61-2,5.1,5.1,0,0,1,1.531-.571,10.12,10.12,0,0,1,2.319-.072,6.891,6.891,0,0,1,2.269.707,1.291,1.291,0,0,1,.562.371c-.2.059-.331-.058-.474-.108a2.923,2.923,0,0,0-1.873-.184.888.888,0,0,0-.6,1.345,3.32,3.32,0,0,0,.543.811,30.58,30.58,0,0,0,4.023,3.538c.021.017.068,0,.167,0-.317-.444-.618-.843-.894-1.26a3.91,3.91,0,0,1-.741-1.789,1.109,1.109,0,0,1,.534-1.129,1.457,1.457,0,0,1,1.718,1.123c-.036-.018-.072-.034-.105-.054a.758.758,0,0,0-.944-.037.768.768,0,0,0-.14.969,5.828,5.828,0,0,0,.733,1.245,6.488,6.488,0,0,1,1.528,2.6A6.919,6.919,0,0,1,236.048,419.678Z" transform="translate(-225.239 -409.493)" fill="#21b2d4"/>
      </g>
      <g id="Group_2-12" data-name="Group 2" transform="translate(128.023 413.677)">
        <path id="Path_2-12" data-name="Path 2" d="M128.127,505.227c.1-.394.183-.773.307-1.153a6.5,6.5,0,0,1,.567-1.363.89.89,0,0,1,.094.5,4.765,4.765,0,0,0,1.829,3.084,20.917,20.917,0,0,0,2.407,1.808,5.509,5.509,0,0,1,1.812,1.966,3.429,3.429,0,0,1,.216.5,1.374,1.374,0,0,1-1.158,2.013,4.895,4.895,0,0,1-4.818-2.084,9.849,9.849,0,0,1-1.223-2.993A5.517,5.517,0,0,1,128.127,505.227Z" transform="translate(-128.023 -502.712)" fill="#21b2d4"/>
      </g>
      <g id="Group_3-12" data-name="Group 3" transform="translate(140.396 423.439)">
        <path id="Path_3-12" data-name="Path 3" d="M403.677,720.2l.056.061" transform="translate(-403.677 -720.2)" fill="#21b2d4"/>
      </g>
    </g>
    <g id="Group_2760" data-name="Group 2760" transform="translate(658.977 187.246)">
      <g id="Group_1-13" data-name="Group 1" transform="translate(132.386 409.493)">
        <path id="Path_1-13" data-name="Path 1" d="M236.048,419.678A6.683,6.683,0,0,1,233.3,423.5l-.056-.061c1.576-1.743.465-4.158-1.016-5.252-1.206-.891-2.443-1.741-3.645-2.636a13.489,13.489,0,0,1-2.7-2.647,4.056,4.056,0,0,1-.453-.729,1.418,1.418,0,0,1,.61-2,5.1,5.1,0,0,1,1.531-.571,10.12,10.12,0,0,1,2.319-.072,6.891,6.891,0,0,1,2.269.707,1.291,1.291,0,0,1,.562.371c-.2.059-.331-.058-.474-.108a2.923,2.923,0,0,0-1.873-.184.888.888,0,0,0-.6,1.345,3.32,3.32,0,0,0,.543.811,30.58,30.58,0,0,0,4.023,3.538c.021.017.068,0,.167,0-.317-.444-.618-.843-.894-1.26a3.91,3.91,0,0,1-.741-1.789,1.109,1.109,0,0,1,.534-1.129,1.457,1.457,0,0,1,1.718,1.123c-.036-.018-.072-.034-.105-.054a.758.758,0,0,0-.944-.037.768.768,0,0,0-.14.969,5.828,5.828,0,0,0,.733,1.245,6.488,6.488,0,0,1,1.528,2.6A6.919,6.919,0,0,1,236.048,419.678Z" transform="translate(-225.239 -409.493)" fill="#21b2d4"/>
      </g>
      <g id="Group_2-13" data-name="Group 2" transform="translate(128.023 413.677)">
        <path id="Path_2-13" data-name="Path 2" d="M128.127,505.227c.1-.394.183-.773.307-1.153a6.5,6.5,0,0,1,.567-1.363.89.89,0,0,1,.094.5,4.765,4.765,0,0,0,1.829,3.084,20.917,20.917,0,0,0,2.407,1.808,5.509,5.509,0,0,1,1.812,1.966,3.429,3.429,0,0,1,.216.5,1.374,1.374,0,0,1-1.158,2.013,4.895,4.895,0,0,1-4.818-2.084,9.849,9.849,0,0,1-1.223-2.993A5.517,5.517,0,0,1,128.127,505.227Z" transform="translate(-128.023 -502.712)" fill="#21b2d4"/>
      </g>
      <g id="Group_3-13" data-name="Group 3" transform="translate(140.396 423.439)">
        <path id="Path_3-13" data-name="Path 3" d="M403.677,720.2l.056.061" transform="translate(-403.677 -720.2)" fill="#21b2d4"/>
      </g>
    </g>
    <g id="Group_2765" data-name="Group 2765" transform="translate(658.977 207.246)">
      <g id="Group_1-14" data-name="Group 1" transform="translate(132.386 409.493)">
        <path id="Path_1-14" data-name="Path 1" d="M236.048,419.678A6.683,6.683,0,0,1,233.3,423.5l-.056-.061c1.576-1.743.465-4.158-1.016-5.252-1.206-.891-2.443-1.741-3.645-2.636a13.489,13.489,0,0,1-2.7-2.647,4.056,4.056,0,0,1-.453-.729,1.418,1.418,0,0,1,.61-2,5.1,5.1,0,0,1,1.531-.571,10.12,10.12,0,0,1,2.319-.072,6.891,6.891,0,0,1,2.269.707,1.291,1.291,0,0,1,.562.371c-.2.059-.331-.058-.474-.108a2.923,2.923,0,0,0-1.873-.184.888.888,0,0,0-.6,1.345,3.32,3.32,0,0,0,.543.811,30.58,30.58,0,0,0,4.023,3.538c.021.017.068,0,.167,0-.317-.444-.618-.843-.894-1.26a3.91,3.91,0,0,1-.741-1.789,1.109,1.109,0,0,1,.534-1.129,1.457,1.457,0,0,1,1.718,1.123c-.036-.018-.072-.034-.105-.054a.758.758,0,0,0-.944-.037.768.768,0,0,0-.14.969,5.828,5.828,0,0,0,.733,1.245,6.488,6.488,0,0,1,1.528,2.6A6.919,6.919,0,0,1,236.048,419.678Z" transform="translate(-225.239 -409.493)" fill="#21b2d4"/>
      </g>
      <g id="Group_2-14" data-name="Group 2" transform="translate(128.023 413.677)">
        <path id="Path_2-14" data-name="Path 2" d="M128.127,505.227c.1-.394.183-.773.307-1.153a6.5,6.5,0,0,1,.567-1.363.89.89,0,0,1,.094.5,4.765,4.765,0,0,0,1.829,3.084,20.917,20.917,0,0,0,2.407,1.808,5.509,5.509,0,0,1,1.812,1.966,3.429,3.429,0,0,1,.216.5,1.374,1.374,0,0,1-1.158,2.013,4.895,4.895,0,0,1-4.818-2.084,9.849,9.849,0,0,1-1.223-2.993A5.517,5.517,0,0,1,128.127,505.227Z" transform="translate(-128.023 -502.712)" fill="#21b2d4"/>
      </g>
      <g id="Group_3-14" data-name="Group 3" transform="translate(140.396 423.439)">
        <path id="Path_3-14" data-name="Path 3" d="M403.677,720.2l.056.061" transform="translate(-403.677 -720.2)" fill="#21b2d4"/>
      </g>
    </g>
    <g id="Group_2770" data-name="Group 2770" transform="translate(658.977 227.246)">
      <g id="Group_1-15" data-name="Group 1" transform="translate(132.386 409.493)">
        <path id="Path_1-15" data-name="Path 1" d="M236.048,419.678A6.683,6.683,0,0,1,233.3,423.5l-.056-.061c1.576-1.743.465-4.158-1.016-5.252-1.206-.891-2.443-1.741-3.645-2.636a13.489,13.489,0,0,1-2.7-2.647,4.056,4.056,0,0,1-.453-.729,1.418,1.418,0,0,1,.61-2,5.1,5.1,0,0,1,1.531-.571,10.12,10.12,0,0,1,2.319-.072,6.891,6.891,0,0,1,2.269.707,1.291,1.291,0,0,1,.562.371c-.2.059-.331-.058-.474-.108a2.923,2.923,0,0,0-1.873-.184.888.888,0,0,0-.6,1.345,3.32,3.32,0,0,0,.543.811,30.58,30.58,0,0,0,4.023,3.538c.021.017.068,0,.167,0-.317-.444-.618-.843-.894-1.26a3.91,3.91,0,0,1-.741-1.789,1.109,1.109,0,0,1,.534-1.129,1.457,1.457,0,0,1,1.718,1.123c-.036-.018-.072-.034-.105-.054a.758.758,0,0,0-.944-.037.768.768,0,0,0-.14.969,5.828,5.828,0,0,0,.733,1.245,6.488,6.488,0,0,1,1.528,2.6A6.919,6.919,0,0,1,236.048,419.678Z" transform="translate(-225.239 -409.493)" fill="#21b2d4"/>
      </g>
      <g id="Group_2-15" data-name="Group 2" transform="translate(128.023 413.677)">
        <path id="Path_2-15" data-name="Path 2" d="M128.127,505.227c.1-.394.183-.773.307-1.153a6.5,6.5,0,0,1,.567-1.363.89.89,0,0,1,.094.5,4.765,4.765,0,0,0,1.829,3.084,20.917,20.917,0,0,0,2.407,1.808,5.509,5.509,0,0,1,1.812,1.966,3.429,3.429,0,0,1,.216.5,1.374,1.374,0,0,1-1.158,2.013,4.895,4.895,0,0,1-4.818-2.084,9.849,9.849,0,0,1-1.223-2.993A5.517,5.517,0,0,1,128.127,505.227Z" transform="translate(-128.023 -502.712)" fill="#21b2d4"/>
      </g>
      <g id="Group_3-15" data-name="Group 3" transform="translate(140.396 423.439)">
        <path id="Path_3-15" data-name="Path 3" d="M403.677,720.2l.056.061" transform="translate(-403.677 -720.2)" fill="#21b2d4"/>
      </g>
    </g>
    <g id="Group_2775" data-name="Group 2775" transform="translate(658.977 247.246)">
      <g id="Group_1-16" data-name="Group 1" transform="translate(132.386 409.493)">
        <path id="Path_1-16" data-name="Path 1" d="M236.048,419.678A6.683,6.683,0,0,1,233.3,423.5l-.056-.061c1.576-1.743.465-4.158-1.016-5.252-1.206-.891-2.443-1.741-3.645-2.636a13.489,13.489,0,0,1-2.7-2.647,4.056,4.056,0,0,1-.453-.729,1.418,1.418,0,0,1,.61-2,5.1,5.1,0,0,1,1.531-.571,10.12,10.12,0,0,1,2.319-.072,6.891,6.891,0,0,1,2.269.707,1.291,1.291,0,0,1,.562.371c-.2.059-.331-.058-.474-.108a2.923,2.923,0,0,0-1.873-.184.888.888,0,0,0-.6,1.345,3.32,3.32,0,0,0,.543.811,30.58,30.58,0,0,0,4.023,3.538c.021.017.068,0,.167,0-.317-.444-.618-.843-.894-1.26a3.91,3.91,0,0,1-.741-1.789,1.109,1.109,0,0,1,.534-1.129,1.457,1.457,0,0,1,1.718,1.123c-.036-.018-.072-.034-.105-.054a.758.758,0,0,0-.944-.037.768.768,0,0,0-.14.969,5.828,5.828,0,0,0,.733,1.245,6.488,6.488,0,0,1,1.528,2.6A6.919,6.919,0,0,1,236.048,419.678Z" transform="translate(-225.239 -409.493)" fill="#21b2d4"/>
      </g>
      <g id="Group_2-16" data-name="Group 2" transform="translate(128.023 413.677)">
        <path id="Path_2-16" data-name="Path 2" d="M128.127,505.227c.1-.394.183-.773.307-1.153a6.5,6.5,0,0,1,.567-1.363.89.89,0,0,1,.094.5,4.765,4.765,0,0,0,1.829,3.084,20.917,20.917,0,0,0,2.407,1.808,5.509,5.509,0,0,1,1.812,1.966,3.429,3.429,0,0,1,.216.5,1.374,1.374,0,0,1-1.158,2.013,4.895,4.895,0,0,1-4.818-2.084,9.849,9.849,0,0,1-1.223-2.993A5.517,5.517,0,0,1,128.127,505.227Z" transform="translate(-128.023 -502.712)" fill="#21b2d4"/>
      </g>
      <g id="Group_3-16" data-name="Group 3" transform="translate(140.396 423.439)">
        <path id="Path_3-16" data-name="Path 3" d="M403.677,720.2l.056.061" transform="translate(-403.677 -720.2)" fill="#21b2d4"/>
      </g>
    </g>
    <g id="Group_2761" data-name="Group 2761" transform="translate(634.977 187.246)">
      <g id="Group_1-17" data-name="Group 1" transform="translate(132.386 409.493)">
        <path id="Path_1-17" data-name="Path 1" d="M236.048,419.678A6.683,6.683,0,0,1,233.3,423.5l-.056-.061c1.576-1.743.465-4.158-1.016-5.252-1.206-.891-2.443-1.741-3.645-2.636a13.489,13.489,0,0,1-2.7-2.647,4.056,4.056,0,0,1-.453-.729,1.418,1.418,0,0,1,.61-2,5.1,5.1,0,0,1,1.531-.571,10.12,10.12,0,0,1,2.319-.072,6.891,6.891,0,0,1,2.269.707,1.291,1.291,0,0,1,.562.371c-.2.059-.331-.058-.474-.108a2.923,2.923,0,0,0-1.873-.184.888.888,0,0,0-.6,1.345,3.32,3.32,0,0,0,.543.811,30.58,30.58,0,0,0,4.023,3.538c.021.017.068,0,.167,0-.317-.444-.618-.843-.894-1.26a3.91,3.91,0,0,1-.741-1.789,1.109,1.109,0,0,1,.534-1.129,1.457,1.457,0,0,1,1.718,1.123c-.036-.018-.072-.034-.105-.054a.758.758,0,0,0-.944-.037.768.768,0,0,0-.14.969,5.828,5.828,0,0,0,.733,1.245,6.488,6.488,0,0,1,1.528,2.6A6.919,6.919,0,0,1,236.048,419.678Z" transform="translate(-225.239 -409.493)" fill="#21b2d4"/>
      </g>
      <g id="Group_2-17" data-name="Group 2" transform="translate(128.023 413.677)">
        <path id="Path_2-17" data-name="Path 2" d="M128.127,505.227c.1-.394.183-.773.307-1.153a6.5,6.5,0,0,1,.567-1.363.89.89,0,0,1,.094.5,4.765,4.765,0,0,0,1.829,3.084,20.917,20.917,0,0,0,2.407,1.808,5.509,5.509,0,0,1,1.812,1.966,3.429,3.429,0,0,1,.216.5,1.374,1.374,0,0,1-1.158,2.013,4.895,4.895,0,0,1-4.818-2.084,9.849,9.849,0,0,1-1.223-2.993A5.517,5.517,0,0,1,128.127,505.227Z" transform="translate(-128.023 -502.712)" fill="#21b2d4"/>
      </g>
      <g id="Group_3-17" data-name="Group 3" transform="translate(140.396 423.439)">
        <path id="Path_3-17" data-name="Path 3" d="M403.677,720.2l.056.061" transform="translate(-403.677 -720.2)" fill="#21b2d4"/>
      </g>
    </g>
    <g id="Group_2766" data-name="Group 2766" transform="translate(634.977 207.246)">
      <g id="Group_1-18" data-name="Group 1" transform="translate(132.386 409.493)">
        <path id="Path_1-18" data-name="Path 1" d="M236.048,419.678A6.683,6.683,0,0,1,233.3,423.5l-.056-.061c1.576-1.743.465-4.158-1.016-5.252-1.206-.891-2.443-1.741-3.645-2.636a13.489,13.489,0,0,1-2.7-2.647,4.056,4.056,0,0,1-.453-.729,1.418,1.418,0,0,1,.61-2,5.1,5.1,0,0,1,1.531-.571,10.12,10.12,0,0,1,2.319-.072,6.891,6.891,0,0,1,2.269.707,1.291,1.291,0,0,1,.562.371c-.2.059-.331-.058-.474-.108a2.923,2.923,0,0,0-1.873-.184.888.888,0,0,0-.6,1.345,3.32,3.32,0,0,0,.543.811,30.58,30.58,0,0,0,4.023,3.538c.021.017.068,0,.167,0-.317-.444-.618-.843-.894-1.26a3.91,3.91,0,0,1-.741-1.789,1.109,1.109,0,0,1,.534-1.129,1.457,1.457,0,0,1,1.718,1.123c-.036-.018-.072-.034-.105-.054a.758.758,0,0,0-.944-.037.768.768,0,0,0-.14.969,5.828,5.828,0,0,0,.733,1.245,6.488,6.488,0,0,1,1.528,2.6A6.919,6.919,0,0,1,236.048,419.678Z" transform="translate(-225.239 -409.493)" fill="#21b2d4"/>
      </g>
      <g id="Group_2-18" data-name="Group 2" transform="translate(128.023 413.677)">
        <path id="Path_2-18" data-name="Path 2" d="M128.127,505.227c.1-.394.183-.773.307-1.153a6.5,6.5,0,0,1,.567-1.363.89.89,0,0,1,.094.5,4.765,4.765,0,0,0,1.829,3.084,20.917,20.917,0,0,0,2.407,1.808,5.509,5.509,0,0,1,1.812,1.966,3.429,3.429,0,0,1,.216.5,1.374,1.374,0,0,1-1.158,2.013,4.895,4.895,0,0,1-4.818-2.084,9.849,9.849,0,0,1-1.223-2.993A5.517,5.517,0,0,1,128.127,505.227Z" transform="translate(-128.023 -502.712)" fill="#21b2d4"/>
      </g>
      <g id="Group_3-18" data-name="Group 3" transform="translate(140.396 423.439)">
        <path id="Path_3-18" data-name="Path 3" d="M403.677,720.2l.056.061" transform="translate(-403.677 -720.2)" fill="#21b2d4"/>
      </g>
    </g>
    <g id="Group_2771" data-name="Group 2771" transform="translate(634.977 227.246)">
      <g id="Group_1-19" data-name="Group 1" transform="translate(132.386 409.493)">
        <path id="Path_1-19" data-name="Path 1" d="M236.048,419.678A6.683,6.683,0,0,1,233.3,423.5l-.056-.061c1.576-1.743.465-4.158-1.016-5.252-1.206-.891-2.443-1.741-3.645-2.636a13.489,13.489,0,0,1-2.7-2.647,4.056,4.056,0,0,1-.453-.729,1.418,1.418,0,0,1,.61-2,5.1,5.1,0,0,1,1.531-.571,10.12,10.12,0,0,1,2.319-.072,6.891,6.891,0,0,1,2.269.707,1.291,1.291,0,0,1,.562.371c-.2.059-.331-.058-.474-.108a2.923,2.923,0,0,0-1.873-.184.888.888,0,0,0-.6,1.345,3.32,3.32,0,0,0,.543.811,30.58,30.58,0,0,0,4.023,3.538c.021.017.068,0,.167,0-.317-.444-.618-.843-.894-1.26a3.91,3.91,0,0,1-.741-1.789,1.109,1.109,0,0,1,.534-1.129,1.457,1.457,0,0,1,1.718,1.123c-.036-.018-.072-.034-.105-.054a.758.758,0,0,0-.944-.037.768.768,0,0,0-.14.969,5.828,5.828,0,0,0,.733,1.245,6.488,6.488,0,0,1,1.528,2.6A6.919,6.919,0,0,1,236.048,419.678Z" transform="translate(-225.239 -409.493)" fill="#21b2d4"/>
      </g>
      <g id="Group_2-19" data-name="Group 2" transform="translate(128.023 413.677)">
        <path id="Path_2-19" data-name="Path 2" d="M128.127,505.227c.1-.394.183-.773.307-1.153a6.5,6.5,0,0,1,.567-1.363.89.89,0,0,1,.094.5,4.765,4.765,0,0,0,1.829,3.084,20.917,20.917,0,0,0,2.407,1.808,5.509,5.509,0,0,1,1.812,1.966,3.429,3.429,0,0,1,.216.5,1.374,1.374,0,0,1-1.158,2.013,4.895,4.895,0,0,1-4.818-2.084,9.849,9.849,0,0,1-1.223-2.993A5.517,5.517,0,0,1,128.127,505.227Z" transform="translate(-128.023 -502.712)" fill="#21b2d4"/>
      </g>
      <g id="Group_3-19" data-name="Group 3" transform="translate(140.396 423.439)">
        <path id="Path_3-19" data-name="Path 3" d="M403.677,720.2l.056.061" transform="translate(-403.677 -720.2)" fill="#21b2d4"/>
      </g>
    </g>
    <g id="Group_2776" data-name="Group 2776" transform="translate(634.977 247.246)">
      <g id="Group_1-20" data-name="Group 1" transform="translate(132.386 409.493)">
        <path id="Path_1-20" data-name="Path 1" d="M236.048,419.678A6.683,6.683,0,0,1,233.3,423.5l-.056-.061c1.576-1.743.465-4.158-1.016-5.252-1.206-.891-2.443-1.741-3.645-2.636a13.489,13.489,0,0,1-2.7-2.647,4.056,4.056,0,0,1-.453-.729,1.418,1.418,0,0,1,.61-2,5.1,5.1,0,0,1,1.531-.571,10.12,10.12,0,0,1,2.319-.072,6.891,6.891,0,0,1,2.269.707,1.291,1.291,0,0,1,.562.371c-.2.059-.331-.058-.474-.108a2.923,2.923,0,0,0-1.873-.184.888.888,0,0,0-.6,1.345,3.32,3.32,0,0,0,.543.811,30.58,30.58,0,0,0,4.023,3.538c.021.017.068,0,.167,0-.317-.444-.618-.843-.894-1.26a3.91,3.91,0,0,1-.741-1.789,1.109,1.109,0,0,1,.534-1.129,1.457,1.457,0,0,1,1.718,1.123c-.036-.018-.072-.034-.105-.054a.758.758,0,0,0-.944-.037.768.768,0,0,0-.14.969,5.828,5.828,0,0,0,.733,1.245,6.488,6.488,0,0,1,1.528,2.6A6.919,6.919,0,0,1,236.048,419.678Z" transform="translate(-225.239 -409.493)" fill="#21b2d4"/>
      </g>
      <g id="Group_2-20" data-name="Group 2" transform="translate(128.023 413.677)">
        <path id="Path_2-20" data-name="Path 2" d="M128.127,505.227c.1-.394.183-.773.307-1.153a6.5,6.5,0,0,1,.567-1.363.89.89,0,0,1,.094.5,4.765,4.765,0,0,0,1.829,3.084,20.917,20.917,0,0,0,2.407,1.808,5.509,5.509,0,0,1,1.812,1.966,3.429,3.429,0,0,1,.216.5,1.374,1.374,0,0,1-1.158,2.013,4.895,4.895,0,0,1-4.818-2.084,9.849,9.849,0,0,1-1.223-2.993A5.517,5.517,0,0,1,128.127,505.227Z" transform="translate(-128.023 -502.712)" fill="#21b2d4"/>
      </g>
      <g id="Group_3-20" data-name="Group 3" transform="translate(140.396 423.439)">
        <path id="Path_3-20" data-name="Path 3" d="M403.677,720.2l.056.061" transform="translate(-403.677 -720.2)" fill="#21b2d4"/>
      </g>
    </g>
    <g id="Group_2778" data-name="Group 2778" transform="translate(730.977 267.246)">
      <g id="Group_1-21" data-name="Group 1" transform="translate(132.386 409.493)">
        <path id="Path_1-21" data-name="Path 1" d="M236.048,419.678A6.683,6.683,0,0,1,233.3,423.5l-.056-.061c1.576-1.743.465-4.158-1.016-5.252-1.206-.891-2.443-1.741-3.645-2.636a13.489,13.489,0,0,1-2.7-2.647,4.056,4.056,0,0,1-.453-.729,1.418,1.418,0,0,1,.61-2,5.1,5.1,0,0,1,1.531-.571,10.12,10.12,0,0,1,2.319-.072,6.891,6.891,0,0,1,2.269.707,1.291,1.291,0,0,1,.562.371c-.2.059-.331-.058-.474-.108a2.923,2.923,0,0,0-1.873-.184.888.888,0,0,0-.6,1.345,3.32,3.32,0,0,0,.543.811,30.58,30.58,0,0,0,4.023,3.538c.021.017.068,0,.167,0-.317-.444-.618-.843-.894-1.26a3.91,3.91,0,0,1-.741-1.789,1.109,1.109,0,0,1,.534-1.129,1.457,1.457,0,0,1,1.718,1.123c-.036-.018-.072-.034-.105-.054a.758.758,0,0,0-.944-.037.768.768,0,0,0-.14.969,5.828,5.828,0,0,0,.733,1.245,6.488,6.488,0,0,1,1.528,2.6A6.919,6.919,0,0,1,236.048,419.678Z" transform="translate(-225.239 -409.493)" fill="#21b2d4"/>
      </g>
      <g id="Group_2-21" data-name="Group 2" transform="translate(128.023 413.677)">
        <path id="Path_2-21" data-name="Path 2" d="M128.127,505.227c.1-.394.183-.773.307-1.153a6.5,6.5,0,0,1,.567-1.363.89.89,0,0,1,.094.5,4.765,4.765,0,0,0,1.829,3.084,20.917,20.917,0,0,0,2.407,1.808,5.509,5.509,0,0,1,1.812,1.966,3.429,3.429,0,0,1,.216.5,1.374,1.374,0,0,1-1.158,2.013,4.895,4.895,0,0,1-4.818-2.084,9.849,9.849,0,0,1-1.223-2.993A5.517,5.517,0,0,1,128.127,505.227Z" transform="translate(-128.023 -502.712)" fill="#21b2d4"/>
      </g>
      <g id="Group_3-21" data-name="Group 3" transform="translate(140.396 423.439)">
        <path id="Path_3-21" data-name="Path 3" d="M403.677,720.2l.056.061" transform="translate(-403.677 -720.2)" fill="#21b2d4"/>
      </g>
    </g>
    <g id="Group_2779" data-name="Group 2779" transform="translate(706.977 267.246)">
      <g id="Group_1-22" data-name="Group 1" transform="translate(132.386 409.493)">
        <path id="Path_1-22" data-name="Path 1" d="M236.048,419.678A6.683,6.683,0,0,1,233.3,423.5l-.056-.061c1.576-1.743.465-4.158-1.016-5.252-1.206-.891-2.443-1.741-3.645-2.636a13.489,13.489,0,0,1-2.7-2.647,4.056,4.056,0,0,1-.453-.729,1.418,1.418,0,0,1,.61-2,5.1,5.1,0,0,1,1.531-.571,10.12,10.12,0,0,1,2.319-.072,6.891,6.891,0,0,1,2.269.707,1.291,1.291,0,0,1,.562.371c-.2.059-.331-.058-.474-.108a2.923,2.923,0,0,0-1.873-.184.888.888,0,0,0-.6,1.345,3.32,3.32,0,0,0,.543.811,30.58,30.58,0,0,0,4.023,3.538c.021.017.068,0,.167,0-.317-.444-.618-.843-.894-1.26a3.91,3.91,0,0,1-.741-1.789,1.109,1.109,0,0,1,.534-1.129,1.457,1.457,0,0,1,1.718,1.123c-.036-.018-.072-.034-.105-.054a.758.758,0,0,0-.944-.037.768.768,0,0,0-.14.969,5.828,5.828,0,0,0,.733,1.245,6.488,6.488,0,0,1,1.528,2.6A6.919,6.919,0,0,1,236.048,419.678Z" transform="translate(-225.239 -409.493)" fill="#21b2d4"/>
      </g>
      <g id="Group_2-22" data-name="Group 2" transform="translate(128.023 413.677)">
        <path id="Path_2-22" data-name="Path 2" d="M128.127,505.227c.1-.394.183-.773.307-1.153a6.5,6.5,0,0,1,.567-1.363.89.89,0,0,1,.094.5,4.765,4.765,0,0,0,1.829,3.084,20.917,20.917,0,0,0,2.407,1.808,5.509,5.509,0,0,1,1.812,1.966,3.429,3.429,0,0,1,.216.5,1.374,1.374,0,0,1-1.158,2.013,4.895,4.895,0,0,1-4.818-2.084,9.849,9.849,0,0,1-1.223-2.993A5.517,5.517,0,0,1,128.127,505.227Z" transform="translate(-128.023 -502.712)" fill="#21b2d4"/>
      </g>
      <g id="Group_3-22" data-name="Group 3" transform="translate(140.396 423.439)">
        <path id="Path_3-22" data-name="Path 3" d="M403.677,720.2l.056.061" transform="translate(-403.677 -720.2)" fill="#21b2d4"/>
      </g>
    </g>
    <g id="Group_2780" data-name="Group 2780" transform="translate(682.977 267.246)">
      <g id="Group_1-23" data-name="Group 1" transform="translate(132.386 409.493)">
        <path id="Path_1-23" data-name="Path 1" d="M236.048,419.678A6.683,6.683,0,0,1,233.3,423.5l-.056-.061c1.576-1.743.465-4.158-1.016-5.252-1.206-.891-2.443-1.741-3.645-2.636a13.489,13.489,0,0,1-2.7-2.647,4.056,4.056,0,0,1-.453-.729,1.418,1.418,0,0,1,.61-2,5.1,5.1,0,0,1,1.531-.571,10.12,10.12,0,0,1,2.319-.072,6.891,6.891,0,0,1,2.269.707,1.291,1.291,0,0,1,.562.371c-.2.059-.331-.058-.474-.108a2.923,2.923,0,0,0-1.873-.184.888.888,0,0,0-.6,1.345,3.32,3.32,0,0,0,.543.811,30.58,30.58,0,0,0,4.023,3.538c.021.017.068,0,.167,0-.317-.444-.618-.843-.894-1.26a3.91,3.91,0,0,1-.741-1.789,1.109,1.109,0,0,1,.534-1.129,1.457,1.457,0,0,1,1.718,1.123c-.036-.018-.072-.034-.105-.054a.758.758,0,0,0-.944-.037.768.768,0,0,0-.14.969,5.828,5.828,0,0,0,.733,1.245,6.488,6.488,0,0,1,1.528,2.6A6.919,6.919,0,0,1,236.048,419.678Z" transform="translate(-225.239 -409.493)" fill="#21b2d4"/>
      </g>
      <g id="Group_2-23" data-name="Group 2" transform="translate(128.023 413.677)">
        <path id="Path_2-23" data-name="Path 2" d="M128.127,505.227c.1-.394.183-.773.307-1.153a6.5,6.5,0,0,1,.567-1.363.89.89,0,0,1,.094.5,4.765,4.765,0,0,0,1.829,3.084,20.917,20.917,0,0,0,2.407,1.808,5.509,5.509,0,0,1,1.812,1.966,3.429,3.429,0,0,1,.216.5,1.374,1.374,0,0,1-1.158,2.013,4.895,4.895,0,0,1-4.818-2.084,9.849,9.849,0,0,1-1.223-2.993A5.517,5.517,0,0,1,128.127,505.227Z" transform="translate(-128.023 -502.712)" fill="#21b2d4"/>
      </g>
      <g id="Group_3-23" data-name="Group 3" transform="translate(140.396 423.439)">
        <path id="Path_3-23" data-name="Path 3" d="M403.677,720.2l.056.061" transform="translate(-403.677 -720.2)" fill="#21b2d4"/>
      </g>
    </g>
    <g id="Group_2781" data-name="Group 2781" transform="translate(658.977 267.246)">
      <g id="Group_1-24" data-name="Group 1" transform="translate(132.386 409.493)">
        <path id="Path_1-24" data-name="Path 1" d="M236.048,419.678A6.683,6.683,0,0,1,233.3,423.5l-.056-.061c1.576-1.743.465-4.158-1.016-5.252-1.206-.891-2.443-1.741-3.645-2.636a13.489,13.489,0,0,1-2.7-2.647,4.056,4.056,0,0,1-.453-.729,1.418,1.418,0,0,1,.61-2,5.1,5.1,0,0,1,1.531-.571,10.12,10.12,0,0,1,2.319-.072,6.891,6.891,0,0,1,2.269.707,1.291,1.291,0,0,1,.562.371c-.2.059-.331-.058-.474-.108a2.923,2.923,0,0,0-1.873-.184.888.888,0,0,0-.6,1.345,3.32,3.32,0,0,0,.543.811,30.58,30.58,0,0,0,4.023,3.538c.021.017.068,0,.167,0-.317-.444-.618-.843-.894-1.26a3.91,3.91,0,0,1-.741-1.789,1.109,1.109,0,0,1,.534-1.129,1.457,1.457,0,0,1,1.718,1.123c-.036-.018-.072-.034-.105-.054a.758.758,0,0,0-.944-.037.768.768,0,0,0-.14.969,5.828,5.828,0,0,0,.733,1.245,6.488,6.488,0,0,1,1.528,2.6A6.919,6.919,0,0,1,236.048,419.678Z" transform="translate(-225.239 -409.493)" fill="#21b2d4"/>
      </g>
      <g id="Group_2-24" data-name="Group 2" transform="translate(128.023 413.677)">
        <path id="Path_2-24" data-name="Path 2" d="M128.127,505.227c.1-.394.183-.773.307-1.153a6.5,6.5,0,0,1,.567-1.363.89.89,0,0,1,.094.5,4.765,4.765,0,0,0,1.829,3.084,20.917,20.917,0,0,0,2.407,1.808,5.509,5.509,0,0,1,1.812,1.966,3.429,3.429,0,0,1,.216.5,1.374,1.374,0,0,1-1.158,2.013,4.895,4.895,0,0,1-4.818-2.084,9.849,9.849,0,0,1-1.223-2.993A5.517,5.517,0,0,1,128.127,505.227Z" transform="translate(-128.023 -502.712)" fill="#21b2d4"/>
      </g>
      <g id="Group_3-24" data-name="Group 3" transform="translate(140.396 423.439)">
        <path id="Path_3-24" data-name="Path 3" d="M403.677,720.2l.056.061" transform="translate(-403.677 -720.2)" fill="#21b2d4"/>
      </g>
    </g>
    <g id="Group_2782" data-name="Group 2782" transform="translate(634.977 267.246)">
      <g id="Group_1-25" data-name="Group 1" transform="translate(132.386 409.493)">
        <path id="Path_1-25" data-name="Path 1" d="M236.048,419.678A6.683,6.683,0,0,1,233.3,423.5l-.056-.061c1.576-1.743.465-4.158-1.016-5.252-1.206-.891-2.443-1.741-3.645-2.636a13.489,13.489,0,0,1-2.7-2.647,4.056,4.056,0,0,1-.453-.729,1.418,1.418,0,0,1,.61-2,5.1,5.1,0,0,1,1.531-.571,10.12,10.12,0,0,1,2.319-.072,6.891,6.891,0,0,1,2.269.707,1.291,1.291,0,0,1,.562.371c-.2.059-.331-.058-.474-.108a2.923,2.923,0,0,0-1.873-.184.888.888,0,0,0-.6,1.345,3.32,3.32,0,0,0,.543.811,30.58,30.58,0,0,0,4.023,3.538c.021.017.068,0,.167,0-.317-.444-.618-.843-.894-1.26a3.91,3.91,0,0,1-.741-1.789,1.109,1.109,0,0,1,.534-1.129,1.457,1.457,0,0,1,1.718,1.123c-.036-.018-.072-.034-.105-.054a.758.758,0,0,0-.944-.037.768.768,0,0,0-.14.969,5.828,5.828,0,0,0,.733,1.245,6.488,6.488,0,0,1,1.528,2.6A6.919,6.919,0,0,1,236.048,419.678Z" transform="translate(-225.239 -409.493)" fill="#21b2d4"/>
      </g>
      <g id="Group_2-25" data-name="Group 2" transform="translate(128.023 413.677)">
        <path id="Path_2-25" data-name="Path 2" d="M128.127,505.227c.1-.394.183-.773.307-1.153a6.5,6.5,0,0,1,.567-1.363.89.89,0,0,1,.094.5,4.765,4.765,0,0,0,1.829,3.084,20.917,20.917,0,0,0,2.407,1.808,5.509,5.509,0,0,1,1.812,1.966,3.429,3.429,0,0,1,.216.5,1.374,1.374,0,0,1-1.158,2.013,4.895,4.895,0,0,1-4.818-2.084,9.849,9.849,0,0,1-1.223-2.993A5.517,5.517,0,0,1,128.127,505.227Z" transform="translate(-128.023 -502.712)" fill="#21b2d4"/>
      </g>
      <g id="Group_3-25" data-name="Group 3" transform="translate(140.396 423.439)">
        <path id="Path_3-25" data-name="Path 3" d="M403.677,720.2l.056.061" transform="translate(-403.677 -720.2)" fill="#21b2d4"/>
      </g>
    </g>
  </g>
</svg>
